<svg width="24" height="24" viewBox="0 0 24 24" fill="none" xmlns="http://www.w3.org/2000/svg">
<path d="M2.41421 6.65689C1.63316 5.87584 1.63316 4.60951 2.41421 3.82846L3.82843 2.41425C4.60948 1.6332 5.87581 1.6332 6.65685 2.41425L20.799 16.5564C21.58 17.3374 21.58 18.6038 20.799 19.3848L19.3848 20.799C18.6037 21.5801 17.3374 21.5801 16.5563 20.799L2.41421 6.65689Z" fill="#2CC6BE"/>
<path d="M16.5565 2.41421C17.3375 1.63316 18.6039 1.63316 19.3849 2.41421L20.7991 3.82843C21.5802 4.60948 21.5802 5.87581 20.7991 6.65685L6.65699 20.799C5.87595 21.58 4.60962 21.58 3.82857 20.799L2.41435 19.3848C1.63331 18.6037 1.63331 17.3374 2.41435 16.5563L16.5565 2.41421Z" fill="#2CC6BE"/>
</svg>
